<svg width="695" height="695" viewBox="0 0 695 695" fill="none" xmlns="http://www.w3.org/2000/svg">
<path d="M694.137 277.884L417.129 694.137L0.875977 417.129L277.884 0.875894L694.137 277.884ZM400.522 495.406C424.142 501.062 450.009 493.064 472.432 473.172C494.855 453.279 511.998 423.122 520.089 389.333C528.179 355.545 526.556 320.894 515.575 293.002C504.593 265.111 485.154 246.264 461.534 240.608L400.522 495.406ZM276.74 462.149C308.083 469.654 341.269 463.79 368.999 445.847C396.729 427.903 416.731 399.35 424.605 366.469C432.478 333.588 427.578 299.073 410.983 270.515C394.388 241.958 367.457 221.698 336.114 214.193L276.74 462.149ZM144.343 434.062C177.048 441.894 211.628 435.982 240.475 417.628C269.322 399.274 290.073 369.981 298.164 336.193C306.255 302.405 301.022 266.889 283.617 237.46C266.212 208.03 238.06 187.096 205.354 179.265L144.343 434.062Z" fill="#D04A29"/>
</svg>
